<?xml version="1.0" encoding="utf-8"?>
<!-- Generator: Adobe Illustrator 24.0.2, SVG Export Plug-In . SVG Version: 6.00 Build 0)  -->
<svg version="1.1" id="Capa_1" xmlns="http://www.w3.org/2000/svg" xmlns:xlink="http://www.w3.org/1999/xlink" x="0px" y="0px"
	 viewBox="0 0 390.8 63.1" style="enable-background:new 0 0 390.8 63.1;" xml:space="preserve">
<style type="text/css">
	.st0{fill:#1C1C1C;}
	.st1{fill:#E62243;}
	.st2{fill:#EE7121;}
	.st3{fill:#F7A720;}
	.st4{fill:#32AA4F;}
	.st5{fill:#00AB9E;}
</style>
<g id="diverweb_1_">
	<path class="st0" d="M37.2,57.8c-1,0.3-2.1,0.6-3.3,0.8c-1.2,0.3-2.6,0.5-3.9,0.7c-1.4,0.2-2.8,0.3-4.2,0.5
		c-1.4,0.1-2.8,0.2-4.1,0.2c-3.1,0-5.9-0.5-8.4-1.4c-2.4-0.9-4.5-2.2-6.2-3.9c-1.7-1.7-3-3.8-3.9-6.2C2.5,46,2,43.3,2,40.3
		c0-3.1,0.4-5.8,1.2-8.3c0.8-2.5,1.9-4.6,3.3-6.3s3.2-3,5.3-4c2.1-0.9,4.5-1.4,7.2-1.4c1.5,0,2.8,0.1,4,0.4c1.2,0.3,2.4,0.7,3.6,1.2
		V4.8l10.7-1.7V57.8z M13,39.8c0,3.3,0.7,6,2.2,8c1.5,2,3.7,3,6.6,3c1,0,1.8,0,2.7-0.1c0.8-0.1,1.5-0.2,2-0.3V30.9
		c-0.7-0.4-1.5-0.8-2.6-1.1c-1.1-0.3-2.2-0.4-3.3-0.4C15.5,29.4,13,32.9,13,39.8z"/>
	<path class="st0" d="M58.3,10.2c0,2-0.6,3.5-1.9,4.6c-1.3,1.1-2.8,1.7-4.5,1.7s-3.2-0.6-4.5-1.7c-1.3-1.1-1.9-2.7-1.9-4.6
		c0-2,0.6-3.5,1.9-4.6c1.3-1.1,2.8-1.7,4.5-1.7s3.2,0.6,4.5,1.7C57.7,6.7,58.3,8.2,58.3,10.2z M57.3,59H46.6V21.1h10.7V59z"/>
	<path class="st0" d="M75.9,59c-2.5-4.8-5-10.4-7.5-16.8c-2.5-6.4-4.9-13.4-7.2-21h11.4c0.5,1.9,1,3.9,1.7,6.1
		c0.7,2.2,1.3,4.4,2,6.6c0.7,2.2,1.4,4.4,2.1,6.5c0.7,2.1,1.4,4,2.1,5.8c0.6-1.7,1.3-3.6,2-5.8c0.7-2.1,1.4-4.3,2.1-6.5
		c0.7-2.2,1.4-4.4,2-6.6c0.6-2.2,1.2-4.2,1.7-6.1h11.1c-2.3,7.6-4.7,14.6-7.2,21c-2.5,6.4-5,12-7.5,16.8H75.9z"/>
	<path class="st0" d="M101.6,40.3c0-3.4,0.5-6.3,1.5-8.8c1-2.5,2.4-4.6,4.1-6.3c1.7-1.7,3.6-3,5.8-3.8c2.2-0.9,4.4-1.3,6.7-1.3
		c5.4,0,9.6,1.6,12.7,4.9c3.1,3.3,4.7,8.1,4.7,14.5c0,0.6,0,1.3-0.1,2.1c0,0.7-0.1,1.4-0.1,2h-24.3c0.2,2.2,1.3,4,3.1,5.3
		c1.8,1.3,4.3,1.9,7.3,1.9c2,0,3.9-0.2,5.8-0.5c1.9-0.4,3.4-0.8,4.6-1.3l1.4,8.7c-0.6,0.3-1.3,0.6-2.3,0.9c-1,0.3-2,0.5-3.2,0.8
		c-1.2,0.2-2.4,0.4-3.8,0.5c-1.3,0.1-2.7,0.2-4,0.2c-3.4,0-6.4-0.5-8.9-1.5c-2.5-1-4.6-2.4-6.3-4.1c-1.7-1.8-2.9-3.8-3.7-6.2
		C102,45.7,101.6,43.1,101.6,40.3z M126.8,36.2c0-0.9-0.2-1.8-0.5-2.7c-0.3-0.9-0.7-1.6-1.2-2.3c-0.6-0.7-1.2-1.2-2.1-1.7
		c-0.8-0.4-1.9-0.6-3.1-0.6c-1.2,0-2.2,0.2-3.1,0.6c-0.9,0.4-1.6,0.9-2.2,1.6c-0.6,0.7-1,1.5-1.3,2.3c-0.3,0.9-0.5,1.8-0.7,2.7
		H126.8z"/>
	<path class="st0" d="M167.5,30.6c-1-0.2-2.1-0.5-3.4-0.8c-1.3-0.3-2.7-0.4-4.2-0.4c-0.7,0-1.5,0.1-2.4,0.2
		c-0.9,0.1-1.6,0.3-2.1,0.4V59h-10.7V23.1c1.9-0.7,4.2-1.3,6.8-1.9c2.6-0.6,5.5-0.9,8.7-0.9c0.6,0,1.3,0,2.1,0.1
		c0.8,0.1,1.6,0.2,2.4,0.3c0.8,0.1,1.6,0.3,2.4,0.4c0.8,0.2,1.5,0.4,2.1,0.6L167.5,30.6z"/>
	<path class="st0" d="M199.7,37.2c-1,3.6-2,7.3-3.1,10.9s-2.2,7.2-3.4,10.9h-8.4c-0.9-2-1.8-4.4-2.8-7.2c-1-2.8-2.1-5.8-3.1-9.1
		c-1.1-3.3-2.2-6.8-3.3-10.4s-2.2-7.4-3.3-11.1h11.3c0.4,1.7,0.8,3.6,1.3,5.7c0.5,2,0.9,4.1,1.4,6.3s1,4.3,1.6,6.5
		c0.6,2.2,1.1,4.3,1.7,6.3c0.6-2.1,1.2-4.3,1.8-6.5c0.6-2.2,1.2-4.4,1.7-6.5c0.6-2.1,1.1-4.2,1.6-6.2c0.5-2,0.9-3.9,1.3-5.6h7.8
		c0.4,1.7,0.8,3.6,1.3,5.6c0.5,2,1,4.1,1.5,6.2c0.5,2.1,1.1,4.3,1.7,6.5c0.6,2.2,1.2,4.4,1.8,6.5c0.6-2,1.2-4.1,1.7-6.3
		c0.6-2.2,1.1-4.4,1.6-6.5c0.5-2.2,1-4.3,1.4-6.3c0.5-2,0.9-3.9,1.3-5.7h11.2c-1.1,3.7-2.2,7.5-3.3,11.1c-1.1,3.7-2.2,7.2-3.3,10.4
		c-1.1,3.3-2.1,6.3-3.2,9.1c-1,2.8-2,5.2-2.9,7.2h-8.4c-1.2-3.6-2.4-7.3-3.5-10.9C201.7,44.5,200.7,40.9,199.7,37.2z"/>
	<path class="st0" d="M229.7,40.3c0-3.4,0.5-6.3,1.5-8.8c1-2.5,2.4-4.6,4.1-6.3c1.7-1.7,3.6-3,5.8-3.8c2.2-0.9,4.4-1.3,6.7-1.3
		c5.4,0,9.6,1.6,12.7,4.9c3.1,3.3,4.7,8.1,4.7,14.5c0,0.6,0,1.3-0.1,2.1c0,0.7-0.1,1.4-0.1,2h-24.3c0.2,2.2,1.3,4,3.1,5.3
		c1.8,1.3,4.3,1.9,7.3,1.9c2,0,3.9-0.2,5.8-0.5c1.9-0.4,3.4-0.8,4.6-1.3l1.4,8.7c-0.6,0.3-1.3,0.6-2.3,0.9c-1,0.3-2,0.5-3.2,0.8
		c-1.2,0.2-2.4,0.4-3.8,0.5c-1.3,0.1-2.7,0.2-4,0.2c-3.4,0-6.4-0.5-8.9-1.5c-2.5-1-4.6-2.4-6.3-4.1c-1.7-1.8-2.9-3.8-3.7-6.2
		C230.1,45.7,229.7,43.1,229.7,40.3z M254.9,36.2c0-0.9-0.2-1.8-0.5-2.7c-0.3-0.9-0.7-1.6-1.2-2.3c-0.6-0.7-1.2-1.2-2.1-1.7
		c-0.8-0.4-1.9-0.6-3.1-0.6c-1.2,0-2.2,0.2-3.1,0.6c-0.9,0.4-1.6,0.9-2.2,1.6c-0.6,0.7-1,1.5-1.3,2.3c-0.3,0.9-0.5,1.8-0.7,2.7
		H254.9z"/>
	<path class="st0" d="M308,40.1c0,3-0.4,5.8-1.3,8.2c-0.9,2.4-2.2,4.5-3.9,6.3c-1.7,1.7-3.7,3.1-6.2,4c-2.4,0.9-5.2,1.4-8.4,1.4
		c-1.3,0-2.7-0.1-4.1-0.2c-1.4-0.1-2.8-0.3-4.2-0.5c-1.4-0.2-2.7-0.4-3.9-0.7c-1.2-0.3-2.4-0.5-3.3-0.8V4.8l10.7-1.7V22
		c1.2-0.5,2.4-0.9,3.7-1.2c1.3-0.3,2.7-0.4,4.2-0.4c2.7,0,5.1,0.5,7.1,1.4c2.1,0.9,3.8,2.3,5.2,4c1.4,1.7,2.4,3.8,3.2,6.2
		C307.7,34.4,308,37.1,308,40.1z M297.1,39.8c0-6.9-2.5-10.4-7.6-10.4c-1.1,0-2.2,0.1-3.3,0.4s-2,0.6-2.6,1.1v19.5
		c0.5,0.1,1.2,0.2,2,0.3c0.8,0.1,1.7,0.1,2.7,0.1c2.9,0,5.1-1,6.6-3C296.3,45.7,297.1,43.1,297.1,39.8z"/>
</g>
<g id="diverweb_icon_1_">
	<circle class="st1" cx="364.4" cy="31.6" r="25"/>
	<circle class="st2" cx="358.5" cy="31.6" r="25"/>
	<circle class="st3" cx="353.6" cy="31.6" r="25"/>
	<circle class="st4" cx="347.5" cy="31.6" r="25"/>
	<circle class="st5" cx="342.2" cy="31.6" r="25"/>
</g>
</svg>
